<svg width="534" height="534" viewBox="0 0 534 534" fill="none" xmlns="http://www.w3.org/2000/svg">
<path fill-rule="evenodd" clip-rule="evenodd" d="M525.745 120.987C525.937 121.698 526.036 122.431 526.037 123.168V237.646C526.038 239.116 525.65 240.559 524.913 241.83C524.177 243.102 523.118 244.156 521.843 244.887L425.759 300.207V409.855C425.759 412.839 424.173 415.593 421.586 417.096L221.019 532.555C220.56 532.816 220.059 532.983 219.558 533.16C219.37 533.223 219.193 533.337 218.994 533.39C217.592 533.759 216.119 533.759 214.717 533.39C214.487 533.327 214.278 533.202 214.059 533.118C213.6 532.951 213.12 532.805 212.682 532.555L12.1568 417.096C10.8829 416.364 9.82441 415.309 9.08804 414.038C8.35167 412.767 7.96341 411.324 7.9624 409.855L7.9624 66.4187C7.9624 65.6675 8.06674 64.9372 8.25455 64.2277C8.31715 63.9877 8.46322 63.7686 8.54669 63.5286C8.7032 63.0904 8.84927 62.6417 9.07881 62.2348C9.23531 61.9636 9.46486 61.7444 9.65266 61.494C9.89264 61.1602 10.1117 60.8158 10.3935 60.5237C10.6334 60.2837 10.9464 60.1064 11.2177 59.8977C11.5203 59.6473 11.7916 59.376 12.1359 59.1778L112.414 1.44807C113.684 0.717508 115.123 0.333008 116.588 0.333008C118.052 0.333008 119.492 0.717508 120.761 1.44807L221.029 59.1778H221.05C221.384 59.3864 221.665 59.6473 221.968 59.8872C222.239 60.0959 222.542 60.2837 222.782 60.5133C223.074 60.8158 223.283 61.1602 223.533 61.494C223.71 61.7444 223.95 61.9636 224.097 62.2348C224.337 62.6522 224.472 63.0904 224.639 63.5286C224.723 63.7686 224.869 63.9877 224.931 64.2381C225.123 64.9491 225.222 65.6822 225.223 66.4187V280.925L308.776 232.815V123.157C308.776 122.427 308.881 121.686 309.069 120.987C309.142 120.737 309.277 120.517 309.361 120.278C309.528 119.839 309.674 119.391 309.903 118.984C310.06 118.712 310.289 118.493 310.467 118.243C310.717 117.909 310.926 117.565 311.218 117.273C311.458 117.033 311.761 116.855 312.032 116.647C312.345 116.396 312.616 116.125 312.95 115.927L413.239 58.197C414.508 57.4654 415.947 57.0803 417.412 57.0803C418.877 57.0803 420.316 57.4654 421.586 58.197L521.854 115.927C522.208 116.135 522.48 116.396 522.793 116.636C523.053 116.845 523.356 117.033 523.596 117.262C523.888 117.565 524.097 117.909 524.347 118.243C524.535 118.493 524.765 118.712 524.911 118.984C525.151 119.391 525.286 119.839 525.453 120.278C525.547 120.517 525.683 120.737 525.745 120.987ZM509.323 232.815V137.618L474.234 157.818L425.759 185.728V280.925L509.333 232.815H509.323ZM409.055 405.024V309.764L361.373 336.996L225.213 414.706V510.863L409.055 405.024ZM24.6772 80.8694V405.024L208.498 510.853V414.717L112.466 360.367L112.435 360.347L112.393 360.326C112.07 360.138 111.799 359.867 111.496 359.637C111.235 359.428 110.933 359.261 110.703 359.032L110.682 359.001C110.411 358.74 110.223 358.416 109.994 358.124C109.785 357.843 109.534 357.603 109.368 357.31L109.357 357.279C109.169 356.966 109.055 356.59 108.919 356.236C108.783 355.923 108.606 355.631 108.522 355.297C108.418 354.9 108.397 354.472 108.355 354.066C108.314 353.752 108.23 353.439 108.23 353.126V128.979L59.7657 101.059L24.6772 80.8694ZM116.598 18.3298L33.0555 66.4187L116.577 114.508L200.109 66.4083L116.577 18.3298H116.598ZM160.044 318.445L208.509 290.545V80.8694L173.42 101.069L124.945 128.979V338.655L160.044 318.445ZM417.412 75.0787L333.88 123.168L417.412 171.257L500.934 123.157L417.412 75.0787ZM409.055 185.728L360.58 157.818L325.491 137.618V232.815L373.956 260.715L409.055 280.925V185.728ZM216.845 400.255L339.368 330.308L400.614 295.355L317.144 247.297L221.039 302.627L133.449 353.053L216.845 400.255Z" fill="#FF2D20"/>
</svg>
